<svg width="234" height="42" viewBox="0 0 234 42" fill="none" xmlns="http://www.w3.org/2000/svg">
<path d="M43.2154 24.1077C42.7512 23.7982 42.287 23.4629 41.8486 23.1534C39.0117 21.1676 35.659 17.7376 35.0143 17.0671C34.679 15.107 34.0858 12.7344 32.2032 10.0006C30.7332 7.42166 28.0768 5.92585 26.4778 5.22953C25.111 1.72211 18.354 1.20632 15.7493 1.02579C15.4398 1 15.1303 1 14.8208 1C9.66288 1 8.6055 4.5332 8.39918 6.00322C7.10969 6.08059 6.00072 6.39007 5.0465 6.93166C2.08067 8.65957 1.2554 12.1412 1.07487 14.746C0.920132 17.1702 1.04908 18.1244 1.07487 18.305C1.28119 20.265 1.82278 21.735 3.86017 23.334C2.5191 29.3946 2.02909 36.461 2.0033 36.5384L1.97751 36.7189L2.08067 36.8736C2.18383 37.0284 4.94334 40.6132 11.0039 40.9742C11.2618 41 11.5455 41 11.8034 41C18.4314 41 20.8557 35.8678 20.9588 35.6615L21.062 35.4552L20.9846 35.2489C20.9846 35.2489 20.3914 33.6241 21.2941 30.6325C22.042 28.1567 24.6983 27.7182 25.3947 27.6667C28.5926 30.0909 37.4901 34.7331 39.8112 35.6615C40.9717 36.1257 42.0807 36.3836 43.0607 36.3836C44.2212 36.3836 45.0981 36.0226 45.5107 35.4036C46.207 34.2946 46.0781 33.2373 45.1239 32.283C45.3818 32.3346 45.6912 32.3604 46.0265 32.412C46.336 32.4636 46.7486 32.4894 47.1355 32.4894C48.5539 32.4894 49.3534 31.8188 49.5597 30.4262C49.7918 28.7498 47.2128 26.8156 43.2154 24.1077ZM11.8292 40.51C11.8034 40.51 11.8034 40.51 11.7776 40.51C11.8808 40.51 11.984 40.51 12.1129 40.51C12.0098 40.51 11.9324 40.51 11.8292 40.51ZM14.7177 1.54159C14.7435 1.54159 14.7951 1.54159 14.8208 1.54159C14.8982 1.54159 14.9498 1.54159 15.0272 1.54159C14.9498 1.54159 14.8208 1.5158 14.7177 1.54159ZM18.3025 1.82527C18.6635 1.87685 19.0504 1.92843 19.4372 1.98001C19.0504 1.92843 18.6635 1.85106 18.3025 1.82527Z" fill="#0B2946"/>
<path d="M41.7197 23.5919C38.4959 21.3482 34.7048 17.325 34.7048 17.325C34.3696 15.2618 33.8022 12.9923 31.9453 10.3102C30.4495 7.67962 27.6384 6.23539 26.2458 5.64222C25.2142 2.28955 18.4572 1.74796 15.9041 1.56743C8.91502 1.05164 9.04397 6.75119 9.04397 6.75119L6.54236 15.0297L4.6597 23.0246C3.21547 29.2141 2.72546 36.59 2.72546 36.59C2.72546 36.59 5.35602 40.1232 11.2619 40.4843C18.2251 40.8969 20.701 35.4552 20.701 35.4552C20.701 35.4552 20.0304 33.7273 21.0104 30.5036C21.9905 27.2799 25.7816 27.1509 25.7816 27.1509C28.8505 29.5494 37.9543 34.2947 40.2238 35.1973C42.906 36.2805 44.7886 35.9195 45.2787 35.1458C45.7687 34.3721 45.975 33.3921 44.505 32.2573C43.5507 31.5352 42.9834 31.1484 42.9834 31.1484C44.0665 31.4062 44.1955 31.6641 46.3102 31.922C47.8061 32.1026 48.9924 32.1026 49.2503 30.4004C49.4566 28.6467 45.1239 25.9646 41.7197 23.5919Z" fill="#0B2946"/>
<path d="M58.2766 30.5294L58.6377 27.8988C60.314 28.9562 63.0735 30.2715 66.7357 30.2715C70.9652 30.2715 73.3379 28.6209 73.3379 25.7067C73.3379 18.0471 57.9929 23.1535 57.9929 13.2502C57.9929 8.55645 61.0877 6.02905 66.6583 6.02905C72.0226 6.02905 74.5758 8.22119 75.04 11.9091L72.4094 12.4249C71.9968 9.66542 70.1141 8.35014 66.6067 8.35014C62.893 8.35014 60.7009 10.0007 60.7009 12.9923C60.7009 20.9871 75.9168 15.4423 76.02 25.6551C76.0458 30.4262 72.951 32.7731 66.7872 32.7731C62.2482 32.7215 59.695 31.4578 58.2766 30.5294Z" fill="#2D9BDA"/>
<path d="M82.8801 17.0155V27.9503C82.8801 29.962 83.7827 30.4262 85.1496 30.4262C86.4133 30.4262 87.2386 30.0651 87.8059 29.833L88.0122 32.1283C87.3933 32.3346 86.2328 32.7215 84.479 32.7215C81.7711 32.7215 80.2495 31.7672 80.2495 27.9761V17.0155H77V14.7975H80.2495V9.69116H82.8801V14.7975H88.4249V17.0155H82.8801V17.0155Z" fill="#2D9BDA"/>
<path d="M99.7208 14.6686L99.5403 17.2476C99.334 17.1702 98.844 17.0929 98.1992 17.0929C95.5687 17.0929 93.8923 20.1877 93.8923 23.0245V32.2573H91.2618V14.7976H93.5571L93.7376 18.1503C94.7176 15.9323 96.2908 14.4365 98.1477 14.4365C98.9729 14.4365 99.4372 14.5655 99.7208 14.6686Z" fill="#2D9BDA"/>
<path d="M115.994 30.9162C115.092 31.6899 112.745 32.7473 109.134 32.7473C103.512 32.7473 100.701 29.3946 100.701 23.6951C100.701 18.305 103.46 14.4365 109.34 14.4365C113.983 14.4365 115.891 16.835 115.891 19.4655C115.891 23.9014 112.126 25.294 103.46 25.6551C104.002 29.1109 106.194 30.4262 109.34 30.4262C112.409 30.4262 114.73 29.1109 115.478 28.5178L115.994 30.9162ZM103.331 23.5403C110.914 23.2566 113.286 22.4056 113.286 19.6461C113.286 18.2534 112.306 16.7318 109.263 16.7318C106.039 16.7318 103.409 18.5113 103.331 23.5403Z" fill="#2D9BDA"/>
<path d="M133.712 14.7976V32.3089H131.52L131.236 29.7815C130.075 31.5352 128.09 32.7473 125.356 32.7473C120.688 32.7473 117.671 29.472 117.671 23.8756C117.671 17.9697 120.997 14.4365 125.717 14.4365C128.373 14.4365 130.204 15.4681 131.262 16.9639L131.52 14.8234H133.712V14.7976ZM131.081 25.4746V22.3282C131.081 19.8782 129.843 16.706 125.975 16.706C122.364 16.706 120.275 19.4397 120.275 23.8498C120.275 28.0793 122.21 30.4004 125.717 30.4004C129.07 30.4262 131.081 28.2857 131.081 25.4746Z" fill="#2D9BDA"/>
<path d="M163.86 21.3998V32.3089H161.23V21.8124C161.23 18.6661 159.992 16.8092 157.258 16.8092C153.983 16.8092 152.152 19.3624 152.152 21.6835V32.2831H149.573V21.6061C149.573 18.5371 148.309 16.7834 145.627 16.7834C142.351 16.7834 140.546 19.3624 140.546 21.7092V32.2831H137.916V14.7976H139.953L140.314 17.7892C141.371 15.855 143.383 14.4365 146.297 14.4365C149.031 14.4365 150.888 15.7002 151.687 18.0729C152.719 15.9581 154.834 14.4365 157.877 14.4365C161.72 14.4365 163.86 16.7576 163.86 21.3998Z" fill="#2D9BDA"/>
<path d="M186.71 6.41602L177.219 22.3541V32.309H172.293V22.3541L162.803 6.41602H168.348L174.795 17.7893L181.294 6.41602H186.71Z" fill="#2D9BDA"/>
<path d="M200.585 14.7976V32.3089H196.948L196.355 30.1683C195.195 31.7415 193.26 32.7473 190.733 32.7473C186.091 32.7473 182.867 29.4204 182.867 23.8498C182.867 17.9697 186.4 14.4365 191.068 14.4365C193.518 14.4365 195.221 15.3392 196.329 16.6544L196.742 14.7976H200.585V14.7976ZM195.762 24.8298V22.3024C195.582 20.265 194.421 18.4855 191.868 18.4855C189.289 18.4855 187.535 20.3166 187.535 23.7724C187.535 27.022 189.057 28.6983 191.687 28.6983C194.266 28.6725 195.762 27.0477 195.762 24.8298Z" fill="#2D9BDA"/>
<path d="M214.331 14.7202L214.047 19.285C213.763 19.1818 213.248 19.0271 212.448 19.0271C210.591 19.0271 208.863 20.7034 208.863 24.0303V32.3089H204.015V14.7976H207.909L208.322 17.4281C209.276 15.5971 210.72 14.4365 212.551 14.4365C213.48 14.4365 214.099 14.6171 214.331 14.7202Z" fill="#2D9BDA"/>
<path d="M232.255 6.41602V32.309H228.206L227.741 30.2974C226.478 31.7158 224.569 32.7474 222.016 32.7474C217.761 32.7474 214.614 29.8332 214.614 23.8757C214.614 17.9183 217.941 14.4366 223.228 14.4366C224.982 14.4366 226.375 14.7719 227.432 15.2103V6.41602H232.255ZM227.406 24.2626V19.5688C226.555 18.9757 225.369 18.4856 223.77 18.4856C221.191 18.4856 219.463 20.162 219.463 23.7983C219.463 27.3058 221.062 28.6726 223.151 28.6726C225.472 28.6726 227.406 26.9447 227.406 24.2626Z" fill="#2D9BDA"/>
<path d="M11.9582 36.0484C7.88345 35.9194 5.51078 34.5268 4.7113 33.9852L4.42761 35.9968C4.42761 35.9968 7.54818 38.9369 11.6746 38.9369C13.1446 38.9369 16.033 39.0916 18.8699 35.3779C18.8699 35.3779 18.7667 34.6042 18.8183 33.521C17.7867 34.5268 16.2651 36.1773 11.9582 36.0484Z" fill="#FEFFFF"/>
<path d="M4.42761 33.7787C4.42761 33.7787 4.53077 33.8561 4.7113 33.985L4.73709 33.7529L4.42761 33.7787Z" fill="#0B2946"/>
<path d="M19.3083 33.0569L18.8441 33.0827C18.8441 33.2374 18.8183 33.3664 18.8183 33.5211C18.9988 33.3406 19.1536 33.1858 19.3083 33.0569Z" fill="#0B2946"/>
<path d="M32.5643 14.617C30.8879 10.5164 27.8189 7.26692 24.3889 6.15796C20.9589 5.049 15.7751 4.04319 14.1761 7.91166C14.1761 7.91166 6.59393 21.0645 6.10392 24.1592L4.76285 33.7531L4.73706 33.9852C5.51075 34.5268 7.90921 35.9194 11.984 36.0484C16.2909 36.1773 17.8383 34.5268 18.8441 33.4952C18.8441 33.3662 18.8699 33.2115 18.8699 33.0567C18.9988 31.5867 19.3857 29.7041 20.5462 28.2598C22.7383 25.5261 26.5552 25.423 26.5552 25.423C26.5552 25.423 29.4437 25.7582 31.4553 23.6692C33.4669 21.5803 34.2148 18.7434 32.5643 14.617Z" fill="#016666"/>
<path d="M35.0401 26.0161C35.0401 26.0161 37.8769 28.5435 38.9085 29.4204C39.9401 30.2972 44.247 33.3147 44.2728 33.9852C44.2728 34.1399 33.4669 29.0335 33.4669 29.0335C33.4669 29.0335 24.2083 22.6119 24.2599 22.4314C24.3115 22.2508 24.6468 20.9613 24.8531 20.884C25.0594 20.8066 29.4179 20.9613 29.4179 20.9613L35.0401 26.0161Z" fill="#79455B"/>
<path d="M24.8015 22.5603C25.5494 22.6635 29.7789 24.2624 32.2289 26.274C34.7048 28.2856 38.8569 31.1741 40.069 31.7415C41.2812 32.3346 44.3501 33.5983 44.2728 34.0883C44.1954 34.5784 43.8344 35.4036 41.0233 34.2947C38.2122 33.1599 30.9137 28.8272 29.8821 28.1309C28.8505 27.4346 23.6409 23.8756 23.6409 23.8756L24.8015 22.5603Z" fill="#C8842C"/>
<path d="M16.4971 14.4624C17.5287 14.256 20.6493 14.2818 23.0478 16.6029C25.4462 18.924 25.8588 20.7809 25.1883 22.4314C24.5178 24.082 23.2799 25.3199 20.804 24.0046C18.3282 22.6893 15.9556 21.0645 15.2076 19.0529C14.4597 17.0413 16.4971 14.4624 16.4971 14.4624Z" fill="#02A484"/>
<path d="M1.7712 18.2792C2.00331 20.3682 2.59647 21.7608 5.02071 23.4629C6.12968 24.2366 7.31601 24.8556 9.84341 24.6493C12.3966 24.4429 14.2019 22.7408 15.053 20.8839C15.904 19.0271 17.3482 14.746 16.2909 11.2901C15.2593 7.8343 13.325 7.37009 12.3708 7.06061C11.4166 6.72534 8.03812 5.92586 5.45914 7.42167C2.88016 8.91747 1.92594 11.9607 1.74541 14.8233C1.59067 17.4281 1.7712 18.2792 1.7712 18.2792Z" fill="#0B2946"/>
<path d="M6.25858 9.07205C6.25858 9.07205 7.57386 8.22099 10.0239 8.73678C12.4739 9.25258 13.9955 11.0063 13.9955 13.1468C13.9955 15.2874 13.7376 19.1559 11.7518 21.1159C10.127 22.7149 5.87173 23.5401 4.1696 20.2906C2.46748 17.0411 6.67122 14.6426 6.67122 14.6426L6.25858 9.07205Z" fill="#2D9BDA"/>
<path d="M19.1277 11.29C18.7925 10.2326 19.6693 8.86577 21.8873 8.40156C24.1052 7.93734 26.4005 8.40156 27.5868 10.4905C28.7731 12.5795 26.5294 13.6111 25.2399 13.8948C23.9504 14.1785 19.953 13.8948 19.1277 11.29Z" fill="#02A484"/>
<path d="M22.2225 15.2877C22.4288 13.7661 23.4089 12.6572 24.3889 12.554C24.8531 12.5024 25.2141 12.7345 25.472 13.0698C25.3431 12.6572 25.1368 12.2961 24.8789 11.9866C23.7957 10.8003 21.7067 11.7545 21.062 14.1014C20.4172 16.4483 21.3199 18.3309 22.2483 18.5888C22.6867 18.7178 23.0478 18.692 23.3831 18.6146C23.3057 18.5888 23.2541 18.5888 23.1768 18.5372C21.7841 17.8409 22.1452 15.8551 22.2225 15.2877Z" fill="#FDFFFF"/>
<path d="M25.4719 13.0698C25.8588 14.2562 25.6525 15.752 25.214 16.6546C24.7756 17.5315 24.2082 18.3567 23.3572 18.5888" fill="#0B2946"/>
<path d="M25.2141 16.6544C25.6525 15.7517 25.833 14.2559 25.472 13.0696C25.2141 12.7343 24.8272 12.5022 24.3888 12.5538C23.4088 12.657 22.403 13.7659 22.2225 15.2875C22.1451 15.8549 21.8098 17.8665 23.1767 18.5113C23.2541 18.537 23.3056 18.5628 23.383 18.5886C24.2341 18.3565 24.8014 17.5312 25.2141 16.6544Z" fill="#0B2946"/>
<path d="M45.8976 29.5236C45.2528 28.9047 44.4275 28.2083 44.6854 27.8989C44.8402 27.7183 45.227 27.6925 45.7944 27.8989C44.6081 27.0736 43.0865 26.0678 41.4617 24.933C37.7996 22.3798 33.4669 18.3308 33.0284 18.0214C31.5326 16.9382 31.2747 18.0987 31.2489 18.6661C31.2232 19.2335 31.2232 19.9298 29.9079 20.523C28.5926 21.1161 27.071 20.5488 26.1684 20.4198C25.2657 20.2909 25.3431 21.013 25.7815 21.374C27.2515 22.5604 42.4417 29.9363 45.6397 30.581C45.7428 30.6068 45.8202 30.6068 45.9234 30.6326C46.0523 30.4263 46.3618 29.962 45.8976 29.5236Z" fill="#FFCC34"/>
<path d="M48.0897 30.1683C48.1928 29.7556 47.2386 28.9561 45.7686 27.8987C45.2012 27.6666 44.8144 27.7182 44.6596 27.8987C44.4275 28.1824 45.2528 28.9046 45.8718 29.5235C46.336 29.9619 46.0523 30.4261 45.846 30.6325C47.5997 30.9677 47.9349 30.8904 48.0897 30.1683Z" fill="#C8842C"/>
<path d="M32.6931 21.5546C32.951 22.1993 34.2147 22.8956 34.8853 22.7409C35.5816 22.5862 35.2463 21.8898 34.3953 21.0646C33.5442 20.2651 32.2031 20.2909 32.6931 21.5546Z" fill="#C8842C"/>
<path d="M8.03815 24.2622L8.19289 38.5498L9.94659 39.0913L9.71448 24.2622H8.03815Z" fill="#0B2946"/>
<path d="M11.5971 19.0785C10.2303 22.1733 7.93499 22.0701 5.97496 21.5801C3.91177 21.0643 3.37019 19.0269 3.29282 17.1185C3.26703 16.0869 3.65388 11.8058 4.99495 10.0521C6.33602 8.29837 8.81184 8.7368 9.55974 8.94312C10.3076 9.14944 13.0929 10.5163 12.6803 13.869C12.2677 17.4022 12.1129 17.918 11.5971 19.0785Z" fill="white"/>
<path d="M4.73706 18.3824L5.17549 16.835C5.17549 16.835 7.03235 17.815 7.90921 17.4539C8.76027 17.0929 8.37342 16.1902 7.4192 15.8034C6.46498 15.3907 5.22707 14.746 5.71707 12.8375C6.20708 10.9291 7.49657 10.3617 10.5913 11.5223L10.024 13.1728C10.024 13.1728 7.49657 11.9091 7.26446 13.2502C7.10972 14.256 10.7461 14.3849 10.1013 17.196C9.1987 20.7292 4.73706 18.3824 4.73706 18.3824Z" fill="#2D9BDA"/>
</svg>
