<?xml version="1.0" standalone="no"?>
<!DOCTYPE svg PUBLIC "-//W3C//DTD SVG 20010904//EN"
 "http://www.w3.org/TR/2001/REC-SVG-20010904/DTD/svg10.dtd">
<svg version="1.0" xmlns="http://www.w3.org/2000/svg"
 width="250.000000pt" height="250.000000pt" viewBox="0 0 250.000000 250.000000"
 preserveAspectRatio="xMidYMid meet">
<metadata>
Created by potrace 1.11, written by Peter Selinger 2001-2013
</metadata>
<g transform="translate(0.000000,250.000000) scale(0.100000,-0.100000)"
fill="#000000" stroke="none">
<path d="M1470 2445 c-7 -8 -24 -15 -37 -15 -22 0 -24 -2 -12 -16 7 -9 12 -29
11 -45 -2 -26 0 -29 16 -20 14 7 25 6 40 -5 21 -14 22 -14 22 10 0 16 8 30 22
37 l23 12 -28 10 c-15 5 -27 15 -27 22 0 21 -16 26 -30 10z"/>
<path d="M1175 2389 c-94 -36 -154 -126 -171 -254 -5 -33 -15 -57 -31 -72 -27
-26 -28 -32 -9 -58 13 -18 29 -20 208 -21 199 -2 238 4 238 37 0 28 -11 49
-26 49 -23 0 -37 42 -40 121 -4 90 9 131 53 170 32 27 32 28 10 35 -51 16
-181 12 -232 -7z"/>
<path d="M1129 1945 c-2 -2 -29 -6 -59 -10 -30 -4 -78 -16 -107 -27 -52 -19
-112 -68 -114 -91 0 -7 -2 -21 -5 -32 -9 -44 -9 -217 1 -224 5 -4 97 -7 203
-7 106 1 196 -1 200 -4 4 -3 7 -15 8 -26 0 -22 0 -22 -306 -22 -195 0 -321 -4
-347 -11 -139 -38 -217 -199 -209 -436 5 -150 39 -268 98 -336 41 -47 84 -62
190 -65 54 -1 99 1 99 4 1 4 2 54 4 112 3 140 9 163 55 225 28 38 55 61 95 81
l56 27 252 2 c286 1 319 7 367 62 59 67 62 83 61 350 0 220 -2 246 -20 280
-37 73 -114 123 -211 138 -48 7 -306 16 -311 10z m-76 -134 c37 -14 52 -60 34
-103 -15 -36 -43 -51 -82 -43 -11 2 -23 4 -26 4 -3 1 -14 16 -24 35 -16 30
-17 38 -5 66 18 44 56 59 103 41z"/>
<path d="M1760 1500 l-35 -5 -1 -115 c-1 -136 -22 -198 -86 -256 -74 -66 -83
-68 -388 -74 -300 -5 -300 -5 -357 -70 -53 -59 -56 -77 -56 -335 0 -266 4
-289 66 -341 175 -148 589 -136 723 20 39 45 46 75 48 189 l1 82 -210 5 c-209
5 -210 5 -211 27 -1 13 4 23 10 24 6 0 160 1 341 2 313 2 332 3 365 23 46 27
81 81 116 179 27 73 29 91 28 215 -1 253 -70 407 -193 426 -45 7 -125 9 -161
4z m-210 -1041 c36 -49 8 -112 -54 -123 -22 -4 -35 1 -57 24 -33 32 -37 65
-13 98 33 47 91 48 124 1z"/>
<path d="M1595 189 c-5 -6 4 -21 21 -35 l29 -23 -30 -1 c-39 0 -75 -10 -75
-20 0 -5 21 -24 47 -43 33 -24 50 -32 55 -24 4 7 -4 21 -20 34 l-27 22 33 2
c69 3 80 14 47 45 -46 42 -72 57 -80 43z"/>
<path d="M1780 177 c0 -7 14 -23 31 -36 17 -13 29 -24 27 -27 -2 -2 -29 -6
-59 -10 -29 -3 -58 -9 -62 -14 -13 -12 91 -93 110 -86 14 6 10 12 -21 39 l-38
33 40 2 c50 3 83 10 91 18 8 8 -90 94 -106 94 -7 0 -13 -6 -13 -13z"/>
</g>
</svg>
