<?xml version="1.0" standalone="no"?>
<!DOCTYPE svg PUBLIC "-//W3C//DTD SVG 20010904//EN"
 "http://www.w3.org/TR/2001/REC-SVG-20010904/DTD/svg10.dtd">
<svg version="1.0" xmlns="http://www.w3.org/2000/svg"
 width="1794.000000pt" height="1794.000000pt" viewBox="0 0 1794.000000 1794.000000"
 preserveAspectRatio="xMidYMid meet">
<metadata>
Created by potrace 1.11, written by Peter Selinger 2001-2013
</metadata>
<g transform="translate(0.000000,1794.000000) scale(0.100000,-0.100000)"
fill="#000000" stroke="none">
<path d="M10545 17933 c-775 -37 -1466 -125 -2739 -349 -603 -106 -832 -157
-1098 -245 -689 -227 -1318 -679 -1742 -1249 -120 -160 -186 -308 -186 -414 0
-98 66 -180 164 -205 l45 -11 -14 -34 c-55 -130 -90 -363 -100 -646 -3 -102
-15 -327 -27 -500 -25 -381 -29 -819 -9 -900 53 -218 198 -353 443 -415 185
-46 314 -49 1235 -31 535 10 1143 15 1683 14 l845 -3 3 -248 2 -248 -2567 5
c-1413 4 -2671 9 -2798 12 -720 18 -1323 -129 -1780 -434 -589 -393 -1036
-1082 -1245 -1920 -97 -390 -138 -805 -159 -1615 -44 -1650 253 -2746 1013
-3727 111 -144 359 -390 473 -470 107 -75 228 -140 316 -169 60 -21 76 -21
1145 -21 l1085 0 -6 52 c-9 69 -31 320 -62 693 -14 165 -30 361 -36 435 -15
167 -6 579 16 780 118 1091 563 1816 1338 2180 345 162 765 260 1282 300 332
26 530 30 2015 39 861 6 1669 15 1795 21 715 32 1189 178 1547 477 268 223
471 584 537 952 44 245 98 937 131 1671 29 662 37 1895 14 2195 -7 80 -6 81
20 93 15 7 34 28 42 47 15 38 46 336 65 630 14 224 6 730 -14 879 l-13 98 83
-6 c99 -8 318 -61 458 -110 278 -97 544 -240 767 -413 115 -89 298 -254 361
-325 50 -58 56 -69 65 -132 22 -139 104 -250 230 -309 61 -29 75 -32 167 -32
91 0 106 3 165 31 82 39 149 104 192 185 31 61 33 69 33 174 0 100 -3 116 -29
173 -20 44 -48 80 -92 121 -72 68 -144 100 -245 108 -61 5 -66 8 -77 35 -17
47 -217 410 -315 573 -567 944 -1273 1580 -2137 1923 -539 214 -1070 295
-1904 290 -176 -1 -348 -3 -381 -5z"/>
<path d="M13432 12645 c-10 -12 -8 -53 8 -212 74 -737 85 -896 84 -1248 0
-354 -10 -491 -55 -755 -89 -525 -285 -995 -556 -1330 -72 -89 -254 -267 -338
-331 -383 -293 -894 -470 -1540 -533 -419 -42 -883 -53 -2745 -66 -780 -5
-1395 -14 -1450 -20 -672 -72 -1086 -234 -1400 -549 -286 -286 -442 -639 -485
-1096 -122 -1304 -160 -3218 -80 -4008 80 -783 331 -1391 745 -1808 226 -228
439 -355 810 -485 162 -58 530 -140 580 -130 14 2 88 -2 165 -9 701 -68 2257
-85 3250 -34 676 34 1087 104 1445 246 612 243 1010 663 1151 1215 41 163 49
272 59 843 5 303 15 652 21 777 13 239 8 343 -17 430 -50 166 -144 256 -315
299 -75 19 -102 21 -254 16 -93 -3 -244 -12 -335 -19 -126 -10 -478 -13 -1480
-12 -723 1 -1424 5 -1557 9 l-243 7 0 239 0 239 2353 0 c1557 0 2486 -4 2749
-11 652 -19 964 9 1363 123 415 119 725 296 1029 588 521 501 888 1294 991
2145 49 407 83 1302 66 1741 -27 672 -103 1165 -256 1659 -200 643 -593 1310
-1011 1715 -182 176 -349 285 -541 355 l-70 25 -1064 0 c-909 -1 -1066 -3
-1077 -15z"/>
</g>
</svg>
