<?xml version="1.0" encoding="UTF-8"?>
<svg x="0px" y="0px"
	 width="185px" height="188px" viewBox="0 0 185 188" enable-background="new 0 0 185 188" xml:space="preserve" xmlns="http://www.w3.org/2000/svg" xmlns:cc="http://creativecommons.org/ns#" xmlns:dc="http://purl.org/dc/elements/1.1/" xmlns:rdf="http://www.w3.org/1999/02/22-rdf-syntax-ns#" xmlns:xlink="http://www.w3.org/1999/xlink">
 <metadata>
  <rdf:RDF>
   <cc:Work rdf:about="">
    <dc:format>image/svg+xml</dc:format>
    <dc:type rdf:resource="http://purl.org/dc/dcmitype/StillImage"/>
    <dc:title/>
   </cc:Work>
  </rdf:RDF>
 </metadata>
 <defs>
  <linearGradient id="Gradiente_sem_nome_15-3" x1="227.36" x2="311.5" y1="475" y2="475" gradientTransform="translate(4.504 -456.91)" xlink:href="#Gradiente_sem_nome_15"/>
  <linearGradient id="Gradiente_sem_nome_15" x1="193.77" x2="444.93" y1="120.63" y2="120.63" gradientUnits="userSpaceOnUse">
   <stop stop-color="#58bce8" offset="0"/>
   <stop stop-color="#56b7e3" offset=".2"/>
   <stop stop-color="#4fa9d5" offset=".43"/>
   <stop stop-color="#4391bf" offset=".69"/>
   <stop stop-color="#33709f" offset=".95"/>
   <stop stop-color="#306998" offset="1"/>
  </linearGradient>
  <linearGradient id="Gradiente_sem_nome_15-2" x1="306.85" x2="391.5" y1="454.04" y2="454.04" gradientTransform="translate(4.504 -456.91)" xlink:href="#Gradiente_sem_nome_15"/>
  <linearGradient id="Gradiente_sem_nome_18" x1="347.05" x2="365.05" y1="77.24" y2="77.24" gradientTransform="translate(94.954 -383.65)" gradientUnits="userSpaceOnUse">
   <stop stop-color="#ffe873" offset="0"/>
   <stop stop-color="#ffe66e" offset=".25"/>
   <stop stop-color="#ffe160" offset=".54"/>
   <stop stop-color="#ffd948" offset=".86"/>
   <stop stop-color="#ffd43b" offset="1"/>
  </linearGradient>
  <linearGradient id="linearGradient1009" x1="193.77" x2="444.93" y1="120.63" y2="120.63" gradientTransform="translate(4.504 -456.91)" gradientUnits="userSpaceOnUse" xlink:href="#Gradiente_sem_nome_15"/>
  <linearGradient id="linearGradient1559" x1="347.05" x2="365.05" y1="77.24" y2="77.24" gradientTransform="translate(94.954 -383.65)" gradientUnits="userSpaceOnUse" xlink:href="#Gradiente_sem_nome_18"/>
  <filter id="filter1569" color-interpolation-filters="sRGB">
   <feColorMatrix values="0.21 0.72 0.072 0 0 0.21 0.72 0.072 0 0 0.21 0.72 0.072 0 0 0 0 0 1 0 "/>
  </filter>
 </defs>
 <g transform="translate(-18.077 -33.648)">
  <g transform="matrix(.74777 0 0 .75881 -160.02 32.681)">
   <g transform="matrix(.1817 0 0 .1817 227.48 70.978)">
    <g stroke-miterlimit="10">
     <path class="cls-1" d="m300.75-263.39v-0.18a1.3 1.3 0 0 0-0.11-0.48 0.84 0.84 0 0 0-0.5-0.36 2.7 2.7 0 0 0-0.63-0.07c-2.1 0-4.2-0.08-6.3-0.06l-8.63 0.07c-5.69 0-11.38 0.07-17.07 0-15.16-0.23-30.32 0.5-45.47 0.6-10.77 0.08-22.47-0.76-22.73-14.33-0.19-10.18 1.14-20.46 1.31-30.68 0.13-7.57 1.34-13.35 4.93-20 5.36-10 15.43-16.83 26.16-20.49 10.24-3.49 21.15-4.4 32-4.92q33.84-1.63 67.72 0.11c13.79 0.71 28.21 2 39.81 9.53 11.05 7.14 18.2 19.22 21.83 31.87 3.86 13.5 4.1 27.76 4.16 41.78 0.1 23-0.71 46.09-2.76 69-0.46 5.17-1.15 10.35-3.06 15.16-12.62 31.73-50.75 26.11-78.26 26.74-20.13 0.46-40.29-0.35-60.39 1.13-25.5 1.88-46.9 10-57.64 35.3-5.33 12.58-6.87 26.35-6.75 39.91 0 0.48 0.13 2.19 0.32 4.58 0.69 8.78 2.31 26.78 2.47 26.78h-50.31c-0.7 0.2-0.87-0.17-1.57-0.39-11.83-3.65-20.52-15.76-26.87-25.9a107.7 107.7 0 0 1-13.86-36c-4.22-21-3.37-42.73-1.86-64.14 1.79-25.34 14.17-54 38.2-66a66.17 66.17 0 0 1 13.61-4.76c14.15-3.53 26.84-1.82 41.19-1.82h111.1v-3.61c0-1-0.1-2.06-0.1-3.1s-0.05-1.85 0-2.77a20.87 20.87 0 0 0 0.06-2.5z" fill="#b2ddf7" stroke="#070707"/>
     <circle class="cls-2" cx="241.5" cy="-304.91" r="15.5" fill="#fff" stroke="#000"/>
     <path class="cls-3" d="m408.14-229.63c0.19 2.39 0.31 4.1 0.32 4.58 0.12 13.56-1.42 27.33-6.75 39.91-10.74 25.34-32.14 33.42-57.64 35.3-20.1 1.48-40.26 0.67-60.39 1.13-27.56 0.63-65.79-5-78.33 26.92a43.33 43.33 0 0 0-2.75 12.09q-3.24 37.2-3 74.58c0.09 13.16 0.53 26.48 4.15 39.13 3.62 12.65 10.78 24.73 21.83 31.87 11.6 7.5 26 8.82 39.81 9.53q33.84 1.73 67.71 0.11c10.82-0.52 21.73-1.43 32-4.92 10.73-3.66 20.8-10.49 26.16-20.49 3.59-6.69 4.8-12.47 4.93-20l0.4-24.32c0.1-5.94 2-14.3-3.19-18.64-4.3-3.57-11.8-2.1-16.95-1.84-15.7 0.79-31.43 0.63-47.15 0.39-11.24-0.17-22-0.26-33.23-0.26v0c0-0.34-0.06 0.26-0.06-0.08v-12.77h111.13c14.34 0 27 1.71 41.19-1.82a66.38 66.38 0 0 0 13.57-4.74c24-12 36.41-40.69 38.2-66 1.51-21.41 2.36-43.11-1.86-64.14a107.7 107.7 0 0 0-13.86-36c-6.35-10.14-15-22.25-26.88-25.9-0.69-0.22-0.86-0.59-1.56-0.39h-50.27c0.16-0.01 1.83 17.99 2.47 26.77z" fill="#f7ecc1" stroke="#020202"/>
     <path class="cls-4" d="m296-44.406s-15-9-50-9c-25 0-46.33 9-46.33 9l0.33-13s11-10 46-10c40 0 50 10 50 10z" fill="#7cc2e5" stroke="#070707"/>
     <path class="cls-1" d="m498.18-194.14a107.51 107.51 0 0 0-13.87-36c-6.34-10.14-15-22.25-26.87-25.9-0.69-0.22-0.86-0.59-1.56-0.39h-50.28c0.17 0 1.79 18 2.48 26.78 0.19 2.39 0.31 4.1 0.31 4.58 0.13 13.56-1.41 27.33-6.74 39.91-10.74 25.34-32.14 33.42-57.65 35.3-20.1 1.48-40.26 0.67-60.38 1.13-27.56 0.63-65.79-5-78.33 26.92a43.18 43.18 0 0 0-2.79 12.1q-2.82 32.37-3 64.88l0.32-12.79s11-10 46.07-10c40.06 0 50.07 10 50.07 10v0.21h111.11c14.35 0 27 1.71 41.19-1.82a66 66 0 0 0 13.57-4.74c24-12 36.42-40.69 38.21-66 1.51-21.44 2.36-43.14-1.86-64.17z" fill="#b2ddf7" stroke="#070707"/>
    </g>
    <g fill="#f9e79b" stroke="#070707" stroke-miterlimit="10">
     <circle class="cls-5" cx="251.5" cy="-92.906" r="6.5"/>
     <circle class="cls-5" cx="231.5" cy="-119.91" r="6.5"/>
     <circle class="cls-5" cx="267.5" cy="-133.91" r="6.5"/>
     <circle class="cls-5" cx="287.5" cy="-104.91" r="6.5"/>
     <circle class="cls-5" cx="330.5" cy="-104.91" r="6.5"/>
     <circle class="cls-5" cx="350.5" cy="-74.906" r="6.5"/>
     <circle class="cls-5" cx="377.5" cy="-102.91" r="6.5"/>
     <circle class="cls-5" cx="442.5" cy="-79.906" r="6.5"/>
     <circle class="cls-5" cx="454.5" cy="-165.91" r="6.5"/>
     <circle class="cls-5" cx="422.5" cy="-238.91" r="6.5"/>
     <circle class="cls-5" cx="466.5" cy="-233.91" r="6.5"/>
     <circle class="cls-5" cx="442.5" cy="-211.91" r="6.5"/>
     <circle class="cls-5" cx="479.5" cy="-183.91" r="6.5"/>
     <circle class="cls-5" cx="422.5" cy="-185.91" r="6.5"/>
     <circle class="cls-5" cx="485.5" cy="-143.91" r="6.5"/>
     <circle class="cls-5" cx="473.5" cy="-97.906" r="6.5"/>
     <circle class="cls-5" cx="416.5" cy="-150.91" r="6.5"/>
     <circle class="cls-5" cx="454.5" cy="-124.91" r="6.5"/>
     <circle class="cls-5" cx="403.5" cy="-73.906" r="6.5"/>
     <circle class="cls-5" cx="386.5" cy="-130.91" r="6.5"/>
     <circle class="cls-5" cx="418.5" cy="-109.91" r="6.5"/>
     <circle class="cls-5" cx="299.5" cy="-73.906" r="6.5"/>
     <circle class="cls-5" cx="304.5" cy="-131.91" r="6.5"/>
     <circle class="cls-5" cx="348.5" cy="-132.91" r="6.5"/>
     <circle class="cls-5" cx="216.5" cy="-79.906" r="6.5"/>
    </g>
    <g stroke-miterlimit="10">
     <path class="cls-6" d="m399.37-329.43a9 9 0 0 1 2.32 0.12c1 0.13 1.92 0.22 2.9 0.41 1.8 0.35 3.59 0.79 5.36 1.3a64.9 64.9 0 0 1 23.55 12.48 69.61 69.61 0 0 1 8.5 8.21c-0.37-0.42 0.59-2.63 0.77-3a10.23 10.23 0 0 1 6.45-5.35c0.92-0.23-1.53-4.19-1.8-4.7q-1.59-3-3.25-5.95-3.07-5.52-6.59-10.78a121.14 121.14 0 0 0-16-19.34 94.8 94.8 0 0 0-29.88-19.69 92.4 92.4 0 0 0-25.44-6.41c-33.58-3.49-69.39 2.88-102.5 8.78-12.18 2.16-22.14 4.62-33 10.41a85.87 85.87 0 0 0-25.8 21c-2.82 3.43-10.66 13-4.23 16.53 3.63 2 9.68-1.75 13.34-2.45 9.54-1.81 19.13-3.62 28.84-3.9 12.38-0.37 24.73 1.28 36.86 3.63 39.33 7.62 79.67 20.64 115.83 38.28a2.73 2.73 0 0 0 1.72 0.4c1.05-0.25 1.37-1.58 1.47-2.66 1.07-10.79 2-21.71 0.95-32.54-0.94-9.52-3.73-22.19-10.38-29.51" fill="url(#linearGradient1009)" stroke="#000"/>
     <circle class="cls-7" cx="451" cy="-306.41" r="9" fill="url(#Gradiente_sem_nome_18)" stroke="#070707"/>
     <path class="cls-8" d="m393.5 14.024c-5 3.66-12.79 4.74-19.2 5.68q-13.41 2-26.94 2.88c-7.62 0.5-15.51 0.91-22.68-1.75s-13.27-9-13.32-16.5c-0.12-15.7 16.6-25.11 29.77-28.78s26.82-3.73 40.29-4l14.59-0.26s-0.3 19.27-0.3 25.27a67.47 67.47 0 0 1-2.21 17.46z" fill="url(#Gradiente_sem_nome_15-2)" stroke="#000"/>
     <path class="cls-9" d="m316-8.406a129.91 129.91 0 0 0-37.5 11.35 136.82 136.82 0 0 0-24.77 15.9c-2.55 2-5.06 4.12-7.5 6.27s-4.86 4.4-7.2 6.7-7.15 7.34-7.16 7.31 6.86 2.82 9.14 3.47c2.51 0.72 10 2 10 2a99.81 99.81 0 0 1 8.58-9.57 85.38 85.38 0 0 1 9.86-7.91 126.25 126.25 0 0 1 21-12.39c3.3-1.49 6.84-2.49 10.27-3.66 3.66-1.23 7.31-2.72 11-3.72 0 0-0.24-6.08 0.21-7.75 0.68-2.27 4.07-8 4.07-8z" fill="url(#Gradiente_sem_nome_15-3)" stroke="#000"/>
    </g>
    <g stroke="#070707" stroke-miterlimit="10">
     <path class="cls-10" d="m395.76-224.41q0.75-13.49 1-27h-237.32a72.12 72.12 0 0 0-10.84 1.81 66 66 0 0 0-13.55 4.69 61.08 61.08 0 0 0-22.83 20.46z" fill="#fcedb1"/>
     <path class="cls-4" d="m112.22-224.41a88.19 88.19 0 0 0-12.2 27h293.69c0.32-2.37 0.53-4.77 0.72-7.15q0.79-9.91 1.33-19.85z" fill="#7cc2e5"/>
     <path class="cls-10" d="m100.02-197.41a99 99 0 0 0-3.12 18.5c-0.2 2.84-0.39 5.68-0.55 8.52h282.39a37.2 37.2 0 0 0 12.42-16.52 43.58 43.58 0 0 0 2.55-10.46z" fill="#fcedb1"/>
     <path class="cls-4" d="m96.354-170.41c-0.53 9-0.84 18-0.6 27h113c11.45-10.34 26.78-14.44 44-15.71 20.07-1.47 40.21-0.67 60.3-1.13 21.11-0.48 48.46 2.7 65.73-10.16z" fill="#7cc2e5"/>
     <path class="cls-10" d="m95.754-143.41a169.7 169.7 0 0 0 2.72 27h94a78.17 78.17 0 0 1 2.69-7.46 54.45 54.45 0 0 1 13.57-19.54z" fill="#fcedb1"/>
     <path class="cls-4" d="m98.504-116.41c0.1 0.51 0.18 1 0.28 1.53a114.12 114.12 0 0 0 8.23 25.47h81.49a102.54 102.54 0 0 1 4-27z" fill="#7cc2e5"/>
    </g>
    <polygon class="cls-11" transform="translate(94.954 -383.65)" points="275.2 139.74 253.55 155.74 231.9 139.74 210.25 123.74 253.55 123.74 296.85 123.74" fill="#b2ddf7"/>
    <path class="cls-10" d="m106.98-89.406a105.65 105.65 0 0 0 18.13 27h65.08c-0.52-5.66-1.11-12.55-1.46-17-0.19-2.39-0.31-4.1-0.32-4.58 0-1.79 0-3.59 0.05-5.39z" fill="#fcedb1" stroke="#070707" stroke-miterlimit="10"/>
    <g fill="#7cc2e5" stroke="#070707" stroke-miterlimit="10">
     <path class="cls-4" d="m349-218.91a0.59 0.59 0 0 1-1 0.4l-47-32.91v0-12.19a0.33 0.33 0 0 1 0.56-0.22l47.33 32.31a0.38 0.38 0 0 1 0.11 0.26z"/>
     <path class="cls-4" d="m350.22-218.04 45.28-31.6a2.77 2.77 0 0 0 1.49-2.45v-11.69a0.39 0.39 0 0 0-0.56-0.34l-47.29 32.63a0.28 0.28 0 0 0-0.15 0.25v12.45a0.84 0.84 0 0 0 1.23 0.75z"/>
     <path class="cls-4" d="m125-62.406c0 0.52 7 8 15 10h51c0-1-1-7-1-10z"/>
    </g>
   </g>
   <g transform="matrix(.1817 0 0 .1817 228.2 153.5)" filter="url(#filter1569)">
    <g stroke-miterlimit="10">
     <path class="cls-1" d="m300.75-263.39v-0.18a1.3 1.3 0 0 0-0.11-0.48 0.84 0.84 0 0 0-0.5-0.36 2.7 2.7 0 0 0-0.63-0.07c-2.1 0-4.2-0.08-6.3-0.06l-8.63 0.07c-5.69 0-11.38 0.07-17.07 0-15.16-0.23-30.32 0.5-45.47 0.6-10.77 0.08-22.47-0.76-22.73-14.33-0.19-10.18 1.14-20.46 1.31-30.68 0.13-7.57 1.34-13.35 4.93-20 5.36-10 15.43-16.83 26.16-20.49 10.24-3.49 21.15-4.4 32-4.92q33.84-1.63 67.72 0.11c13.79 0.71 28.21 2 39.81 9.53 11.05 7.14 18.2 19.22 21.83 31.87 3.86 13.5 4.1 27.76 4.16 41.78 0.1 23-0.71 46.09-2.76 69-0.46 5.17-1.15 10.35-3.06 15.16-12.62 31.73-50.75 26.11-78.26 26.74-20.13 0.46-40.29-0.35-60.39 1.13-25.5 1.88-46.9 10-57.64 35.3-5.33 12.58-6.87 26.35-6.75 39.91 0 0.48 0.13 2.19 0.32 4.58 0.69 8.78 2.31 26.78 2.47 26.78h-50.31c-0.7 0.2-0.87-0.17-1.57-0.39-11.83-3.65-20.52-15.76-26.87-25.9a107.7 107.7 0 0 1-13.86-36c-4.22-21-3.37-42.73-1.86-64.14 1.79-25.34 14.17-54 38.2-66a66.17 66.17 0 0 1 13.61-4.76c14.15-3.53 26.84-1.82 41.19-1.82h111.1v-3.61c0-1-0.1-2.06-0.1-3.1s-0.05-1.85 0-2.77a20.87 20.87 0 0 0 0.06-2.5z" fill="#b2ddf7" stroke="#070707"/>
     <circle class="cls-2" cx="241.5" cy="-304.91" r="15.5" fill="#fff" stroke="#000"/>
     <path class="cls-3" d="m408.14-229.63c0.19 2.39 0.31 4.1 0.32 4.58 0.12 13.56-1.42 27.33-6.75 39.91-10.74 25.34-32.14 33.42-57.64 35.3-20.1 1.48-40.26 0.67-60.39 1.13-27.56 0.63-65.79-5-78.33 26.92a43.33 43.33 0 0 0-2.75 12.09q-3.24 37.2-3 74.58c0.09 13.16 0.53 26.48 4.15 39.13 3.62 12.65 10.78 24.73 21.83 31.87 11.6 7.5 26 8.82 39.81 9.53q33.84 1.73 67.71 0.11c10.82-0.52 21.73-1.43 32-4.92 10.73-3.66 20.8-10.49 26.16-20.49 3.59-6.69 4.8-12.47 4.93-20l0.4-24.32c0.1-5.94 2-14.3-3.19-18.64-4.3-3.57-11.8-2.1-16.95-1.84-15.7 0.79-31.43 0.63-47.15 0.39-11.24-0.17-22-0.26-33.23-0.26v0c0-0.34-0.06 0.26-0.06-0.08v-12.77h111.13c14.34 0 27 1.71 41.19-1.82a66.38 66.38 0 0 0 13.57-4.74c24-12 36.41-40.69 38.2-66 1.51-21.41 2.36-43.11-1.86-64.14a107.7 107.7 0 0 0-13.86-36c-6.35-10.14-15-22.25-26.88-25.9-0.69-0.22-0.86-0.59-1.56-0.39h-50.27c0.16-0.01 1.83 17.99 2.47 26.77z" fill="#f7ecc1" stroke="#020202"/>
     <path class="cls-4" d="m296-44.406s-15-9-50-9c-25 0-46.33 9-46.33 9l0.33-13s11-10 46-10c40 0 50 10 50 10z" fill="#7cc2e5" stroke="#070707"/>
     <path class="cls-1" d="m498.18-194.14a107.51 107.51 0 0 0-13.87-36c-6.34-10.14-15-22.25-26.87-25.9-0.69-0.22-0.86-0.59-1.56-0.39h-50.28c0.17 0 1.79 18 2.48 26.78 0.19 2.39 0.31 4.1 0.31 4.58 0.13 13.56-1.41 27.33-6.74 39.91-10.74 25.34-32.14 33.42-57.65 35.3-20.1 1.48-40.26 0.67-60.38 1.13-27.56 0.63-65.79-5-78.33 26.92a43.18 43.18 0 0 0-2.79 12.1q-2.82 32.37-3 64.88l0.32-12.79s11-10 46.07-10c40.06 0 50.07 10 50.07 10v0.21h111.11c14.35 0 27 1.71 41.19-1.82a66 66 0 0 0 13.57-4.74c24-12 36.42-40.69 38.21-66 1.51-21.44 2.36-43.14-1.86-64.17z" fill="#b2ddf7" stroke="#070707"/>
    </g>
    <g fill="#f9e79b" stroke="#070707" stroke-miterlimit="10">
     <circle class="cls-5" cx="251.5" cy="-92.906" r="6.5"/>
     <circle class="cls-5" cx="231.5" cy="-119.91" r="6.5"/>
     <circle class="cls-5" cx="267.5" cy="-133.91" r="6.5"/>
     <circle class="cls-5" cx="287.5" cy="-104.91" r="6.5"/>
     <circle class="cls-5" cx="330.5" cy="-104.91" r="6.5"/>
     <circle class="cls-5" cx="350.5" cy="-74.906" r="6.5"/>
     <circle class="cls-5" cx="377.5" cy="-102.91" r="6.5"/>
     <circle class="cls-5" cx="442.5" cy="-79.906" r="6.5"/>
     <circle class="cls-5" cx="454.5" cy="-165.91" r="6.5"/>
     <circle class="cls-5" cx="422.5" cy="-238.91" r="6.5"/>
     <circle class="cls-5" cx="466.5" cy="-233.91" r="6.5"/>
     <circle class="cls-5" cx="442.5" cy="-211.91" r="6.5"/>
     <circle class="cls-5" cx="479.5" cy="-183.91" r="6.5"/>
     <circle class="cls-5" cx="422.5" cy="-185.91" r="6.5"/>
     <circle class="cls-5" cx="485.5" cy="-143.91" r="6.5"/>
     <circle class="cls-5" cx="473.5" cy="-97.906" r="6.5"/>
     <circle class="cls-5" cx="416.5" cy="-150.91" r="6.5"/>
     <circle class="cls-5" cx="454.5" cy="-124.91" r="6.5"/>
     <circle class="cls-5" cx="403.5" cy="-73.906" r="6.5"/>
     <circle class="cls-5" cx="386.5" cy="-130.91" r="6.5"/>
     <circle class="cls-5" cx="418.5" cy="-109.91" r="6.5"/>
     <circle class="cls-5" cx="299.5" cy="-73.906" r="6.5"/>
     <circle class="cls-5" cx="304.5" cy="-131.91" r="6.5"/>
     <circle class="cls-5" cx="348.5" cy="-132.91" r="6.5"/>
     <circle class="cls-5" cx="216.5" cy="-79.906" r="6.5"/>
    </g>
    <g stroke-miterlimit="10">
     <path class="cls-6" d="m399.37-329.43a9 9 0 0 1 2.32 0.12c1 0.13 1.92 0.22 2.9 0.41 1.8 0.35 3.59 0.79 5.36 1.3a64.9 64.9 0 0 1 23.55 12.48 69.61 69.61 0 0 1 8.5 8.21c-0.37-0.42 0.59-2.63 0.77-3a10.23 10.23 0 0 1 6.45-5.35c0.92-0.23-1.53-4.19-1.8-4.7q-1.59-3-3.25-5.95-3.07-5.52-6.59-10.78a121.14 121.14 0 0 0-16-19.34 94.8 94.8 0 0 0-29.88-19.69 92.4 92.4 0 0 0-25.44-6.41c-33.58-3.49-69.39 2.88-102.5 8.78-12.18 2.16-22.14 4.62-33 10.41a85.87 85.87 0 0 0-25.8 21c-2.82 3.43-10.66 13-4.23 16.53 3.63 2 9.68-1.75 13.34-2.45 9.54-1.81 19.13-3.62 28.84-3.9 12.38-0.37 24.73 1.28 36.86 3.63 39.33 7.62 79.67 20.64 115.83 38.28a2.73 2.73 0 0 0 1.72 0.4c1.05-0.25 1.37-1.58 1.47-2.66 1.07-10.79 2-21.71 0.95-32.54-0.94-9.52-3.73-22.19-10.38-29.51" fill="url(#linearGradient1009)" stroke="#000"/>
     <circle class="cls-7" cx="451" cy="-306.41" r="9" fill="url(#linearGradient1559)" stroke="#070707"/>
     <path class="cls-8" d="m393.5 14.024c-5 3.66-12.79 4.74-19.2 5.68q-13.41 2-26.94 2.88c-7.62 0.5-15.51 0.91-22.68-1.75s-13.27-9-13.32-16.5c-0.12-15.7 16.6-25.11 29.77-28.78s26.82-3.73 40.29-4l14.59-0.26s-0.3 19.27-0.3 25.27a67.47 67.47 0 0 1-2.21 17.46z" fill="url(#Gradiente_sem_nome_15-2)" stroke="#000"/>
     <path class="cls-9" d="m316-8.406a129.91 129.91 0 0 0-37.5 11.35 136.82 136.82 0 0 0-24.77 15.9c-2.55 2-5.06 4.12-7.5 6.27s-4.86 4.4-7.2 6.7-7.15 7.34-7.16 7.31 6.86 2.82 9.14 3.47c2.51 0.72 10 2 10 2a99.81 99.81 0 0 1 8.58-9.57 85.38 85.38 0 0 1 9.86-7.91 126.25 126.25 0 0 1 21-12.39c3.3-1.49 6.84-2.49 10.27-3.66 3.66-1.23 7.31-2.72 11-3.72 0 0-0.24-6.08 0.21-7.75 0.68-2.27 4.07-8 4.07-8z" fill="url(#Gradiente_sem_nome_15-3)" stroke="#000"/>
    </g>
    <g stroke="#070707" stroke-miterlimit="10">
     <path class="cls-10" d="m395.76-224.41q0.75-13.49 1-27h-237.32a72.12 72.12 0 0 0-10.84 1.81 66 66 0 0 0-13.55 4.69 61.08 61.08 0 0 0-22.83 20.46z" fill="#fcedb1"/>
     <path class="cls-4" d="m112.22-224.41a88.19 88.19 0 0 0-12.2 27h293.69c0.32-2.37 0.53-4.77 0.72-7.15q0.79-9.91 1.33-19.85z" fill="#7cc2e5"/>
     <path class="cls-10" d="m100.02-197.41a99 99 0 0 0-3.12 18.5c-0.2 2.84-0.39 5.68-0.55 8.52h282.39a37.2 37.2 0 0 0 12.42-16.52 43.58 43.58 0 0 0 2.55-10.46z" fill="#fcedb1"/>
     <path class="cls-4" d="m96.354-170.41c-0.53 9-0.84 18-0.6 27h113c11.45-10.34 26.78-14.44 44-15.71 20.07-1.47 40.21-0.67 60.3-1.13 21.11-0.48 48.46 2.7 65.73-10.16z" fill="#7cc2e5"/>
     <path class="cls-10" d="m95.754-143.41a169.7 169.7 0 0 0 2.72 27h94a78.17 78.17 0 0 1 2.69-7.46 54.45 54.45 0 0 1 13.57-19.54z" fill="#fcedb1"/>
     <path class="cls-4" d="m98.504-116.41c0.1 0.51 0.18 1 0.28 1.53a114.12 114.12 0 0 0 8.23 25.47h81.49a102.54 102.54 0 0 1 4-27z" fill="#7cc2e5"/>
    </g>
    <polygon class="cls-11" transform="translate(94.954 -383.65)" points="275.2 139.74 253.55 155.74 231.9 139.74 210.25 123.74 253.55 123.74 296.85 123.74" fill="#b2ddf7"/>
    <path class="cls-10" d="m106.98-89.406a105.65 105.65 0 0 0 18.13 27h65.08c-0.52-5.66-1.11-12.55-1.46-17-0.19-2.39-0.31-4.1-0.32-4.58 0-1.79 0-3.59 0.05-5.39z" fill="#fcedb1" stroke="#070707" stroke-miterlimit="10"/>
    <g fill="#7cc2e5" stroke="#070707" stroke-miterlimit="10">
     <path class="cls-4" d="m349-218.91a0.59 0.59 0 0 1-1 0.4l-47-32.91v0-12.19a0.33 0.33 0 0 1 0.56-0.22l47.33 32.31a0.38 0.38 0 0 1 0.11 0.26z"/>
     <path class="cls-4" d="m350.22-218.04 45.28-31.6a2.77 2.77 0 0 0 1.49-2.45v-11.69a0.39 0.39 0 0 0-0.56-0.34l-47.29 32.63a0.28 0.28 0 0 0-0.15 0.25v12.45a0.84 0.84 0 0 0 1.23 0.75z"/>
     <path class="cls-4" d="m125-62.406c0 0.52 7 8 15 10h51c0-1-1-7-1-10z"/>
    </g>
   </g>
   <g transform="matrix(.1817 0 0 .1817 228.2 240.78)">
    <g stroke-miterlimit="10">
     <path class="cls-1" d="m300.75-263.39v-0.18a1.3 1.3 0 0 0-0.11-0.48 0.84 0.84 0 0 0-0.5-0.36 2.7 2.7 0 0 0-0.63-0.07c-2.1 0-4.2-0.08-6.3-0.06l-8.63 0.07c-5.69 0-11.38 0.07-17.07 0-15.16-0.23-30.32 0.5-45.47 0.6-10.77 0.08-22.47-0.76-22.73-14.33-0.19-10.18 1.14-20.46 1.31-30.68 0.13-7.57 1.34-13.35 4.93-20 5.36-10 15.43-16.83 26.16-20.49 10.24-3.49 21.15-4.4 32-4.92q33.84-1.63 67.72 0.11c13.79 0.71 28.21 2 39.81 9.53 11.05 7.14 18.2 19.22 21.83 31.87 3.86 13.5 4.1 27.76 4.16 41.78 0.1 23-0.71 46.09-2.76 69-0.46 5.17-1.15 10.35-3.06 15.16-12.62 31.73-50.75 26.11-78.26 26.74-20.13 0.46-40.29-0.35-60.39 1.13-25.5 1.88-46.9 10-57.64 35.3-5.33 12.58-6.87 26.35-6.75 39.91 0 0.48 0.13 2.19 0.32 4.58 0.69 8.78 2.31 26.78 2.47 26.78h-50.31c-0.7 0.2-0.87-0.17-1.57-0.39-11.83-3.65-20.52-15.76-26.87-25.9a107.7 107.7 0 0 1-13.86-36c-4.22-21-3.37-42.73-1.86-64.14 1.79-25.34 14.17-54 38.2-66a66.17 66.17 0 0 1 13.61-4.76c14.15-3.53 26.84-1.82 41.19-1.82h111.1v-3.61c0-1-0.1-2.06-0.1-3.1s-0.05-1.85 0-2.77a20.87 20.87 0 0 0 0.06-2.5z" fill="#b2ddf7" stroke="#070707"/>
     <circle class="cls-2" cx="241.5" cy="-304.91" r="15.5" fill="#fff" stroke="#000"/>
     <path class="cls-3" d="m408.14-229.63c0.19 2.39 0.31 4.1 0.32 4.58 0.12 13.56-1.42 27.33-6.75 39.91-10.74 25.34-32.14 33.42-57.64 35.3-20.1 1.48-40.26 0.67-60.39 1.13-27.56 0.63-65.79-5-78.33 26.92a43.33 43.33 0 0 0-2.75 12.09q-3.24 37.2-3 74.58c0.09 13.16 0.53 26.48 4.15 39.13 3.62 12.65 10.78 24.73 21.83 31.87 11.6 7.5 26 8.82 39.81 9.53q33.84 1.73 67.71 0.11c10.82-0.52 21.73-1.43 32-4.92 10.73-3.66 20.8-10.49 26.16-20.49 3.59-6.69 4.8-12.47 4.93-20l0.4-24.32c0.1-5.94 2-14.3-3.19-18.64-4.3-3.57-11.8-2.1-16.95-1.84-15.7 0.79-31.43 0.63-47.15 0.39-11.24-0.17-22-0.26-33.23-0.26v0c0-0.34-0.06 0.26-0.06-0.08v-12.77h111.13c14.34 0 27 1.71 41.19-1.82a66.38 66.38 0 0 0 13.57-4.74c24-12 36.41-40.69 38.2-66 1.51-21.41 2.36-43.11-1.86-64.14a107.7 107.7 0 0 0-13.86-36c-6.35-10.14-15-22.25-26.88-25.9-0.69-0.22-0.86-0.59-1.56-0.39h-50.27c0.16-0.01 1.83 17.99 2.47 26.77z" fill="#f7ecc1" stroke="#020202"/>
     <path class="cls-4" d="m296-44.406s-15-9-50-9c-25 0-46.33 9-46.33 9l0.33-13s11-10 46-10c40 0 50 10 50 10z" fill="#7cc2e5" stroke="#070707"/>
     <path class="cls-1" d="m498.18-194.14a107.51 107.51 0 0 0-13.87-36c-6.34-10.14-15-22.25-26.87-25.9-0.69-0.22-0.86-0.59-1.56-0.39h-50.28c0.17 0 1.79 18 2.48 26.78 0.19 2.39 0.31 4.1 0.31 4.58 0.13 13.56-1.41 27.33-6.74 39.91-10.74 25.34-32.14 33.42-57.65 35.3-20.1 1.48-40.26 0.67-60.38 1.13-27.56 0.63-65.79-5-78.33 26.92a43.18 43.18 0 0 0-2.79 12.1q-2.82 32.37-3 64.88l0.32-12.79s11-10 46.07-10c40.06 0 50.07 10 50.07 10v0.21h111.11c14.35 0 27 1.71 41.19-1.82a66 66 0 0 0 13.57-4.74c24-12 36.42-40.69 38.21-66 1.51-21.44 2.36-43.14-1.86-64.17z" fill="#b2ddf7" stroke="#070707"/>
    </g>
    <g fill="#f9e79b" stroke="#070707" stroke-miterlimit="10">
     <circle class="cls-5" cx="251.5" cy="-92.906" r="6.5"/>
     <circle class="cls-5" cx="231.5" cy="-119.91" r="6.5"/>
     <circle class="cls-5" cx="267.5" cy="-133.91" r="6.5"/>
     <circle class="cls-5" cx="287.5" cy="-104.91" r="6.5"/>
     <circle class="cls-5" cx="330.5" cy="-104.91" r="6.5"/>
     <circle class="cls-5" cx="350.5" cy="-74.906" r="6.5"/>
     <circle class="cls-5" cx="377.5" cy="-102.91" r="6.5"/>
     <circle class="cls-5" cx="442.5" cy="-79.906" r="6.5"/>
     <circle class="cls-5" cx="454.5" cy="-165.91" r="6.5"/>
     <circle class="cls-5" cx="422.5" cy="-238.91" r="6.5"/>
     <circle class="cls-5" cx="466.5" cy="-233.91" r="6.5"/>
     <circle class="cls-5" cx="442.5" cy="-211.91" r="6.5"/>
     <circle class="cls-5" cx="479.5" cy="-183.91" r="6.5"/>
     <circle class="cls-5" cx="422.5" cy="-185.91" r="6.5"/>
     <circle class="cls-5" cx="485.5" cy="-143.91" r="6.5"/>
     <circle class="cls-5" cx="473.5" cy="-97.906" r="6.5"/>
     <circle class="cls-5" cx="416.5" cy="-150.91" r="6.5"/>
     <circle class="cls-5" cx="454.5" cy="-124.91" r="6.5"/>
     <circle class="cls-5" cx="403.5" cy="-73.906" r="6.5"/>
     <circle class="cls-5" cx="386.5" cy="-130.91" r="6.5"/>
     <circle class="cls-5" cx="418.5" cy="-109.91" r="6.5"/>
     <circle class="cls-5" cx="299.5" cy="-73.906" r="6.5"/>
     <circle class="cls-5" cx="304.5" cy="-131.91" r="6.5"/>
     <circle class="cls-5" cx="348.5" cy="-132.91" r="6.5"/>
     <circle class="cls-5" cx="216.5" cy="-79.906" r="6.5"/>
    </g>
    <g stroke-miterlimit="10">
     <path class="cls-6" d="m399.37-329.43a9 9 0 0 1 2.32 0.12c1 0.13 1.92 0.22 2.9 0.41 1.8 0.35 3.59 0.79 5.36 1.3a64.9 64.9 0 0 1 23.55 12.48 69.61 69.61 0 0 1 8.5 8.21c-0.37-0.42 0.59-2.63 0.77-3a10.23 10.23 0 0 1 6.45-5.35c0.92-0.23-1.53-4.19-1.8-4.7q-1.59-3-3.25-5.95-3.07-5.52-6.59-10.78a121.14 121.14 0 0 0-16-19.34 94.8 94.8 0 0 0-29.88-19.69 92.4 92.4 0 0 0-25.44-6.41c-33.58-3.49-69.39 2.88-102.5 8.78-12.18 2.16-22.14 4.62-33 10.41a85.87 85.87 0 0 0-25.8 21c-2.82 3.43-10.66 13-4.23 16.53 3.63 2 9.68-1.75 13.34-2.45 9.54-1.81 19.13-3.62 28.84-3.9 12.38-0.37 24.73 1.28 36.86 3.63 39.33 7.62 79.67 20.64 115.83 38.28a2.73 2.73 0 0 0 1.72 0.4c1.05-0.25 1.37-1.58 1.47-2.66 1.07-10.79 2-21.71 0.95-32.54-0.94-9.52-3.73-22.19-10.38-29.51" fill="url(#linearGradient1009)" stroke="#000"/>
     <circle class="cls-7" cx="451" cy="-306.41" r="9" fill="url(#linearGradient1559)" stroke="#070707"/>
     <path class="cls-8" d="m393.5 14.024c-5 3.66-12.79 4.74-19.2 5.68q-13.41 2-26.94 2.88c-7.62 0.5-15.51 0.91-22.68-1.75s-13.27-9-13.32-16.5c-0.12-15.7 16.6-25.11 29.77-28.78s26.82-3.73 40.29-4l14.59-0.26s-0.3 19.27-0.3 25.27a67.47 67.47 0 0 1-2.21 17.46z" fill="url(#Gradiente_sem_nome_15-2)" stroke="#000"/>
     <path class="cls-9" d="m316-8.406a129.91 129.91 0 0 0-37.5 11.35 136.82 136.82 0 0 0-24.77 15.9c-2.55 2-5.06 4.12-7.5 6.27s-4.86 4.4-7.2 6.7-7.15 7.34-7.16 7.31 6.86 2.82 9.14 3.47c2.51 0.72 10 2 10 2a99.81 99.81 0 0 1 8.58-9.57 85.38 85.38 0 0 1 9.86-7.91 126.25 126.25 0 0 1 21-12.39c3.3-1.49 6.84-2.49 10.27-3.66 3.66-1.23 7.31-2.72 11-3.72 0 0-0.24-6.08 0.21-7.75 0.68-2.27 4.07-8 4.07-8z" fill="url(#Gradiente_sem_nome_15-3)" stroke="#000"/>
    </g>
    <g stroke="#070707" stroke-miterlimit="10">
     <path class="cls-10" d="m395.76-224.41q0.75-13.49 1-27h-237.32a72.12 72.12 0 0 0-10.84 1.81 66 66 0 0 0-13.55 4.69 61.08 61.08 0 0 0-22.83 20.46z" fill="#fcedb1"/>
     <path class="cls-4" d="m112.22-224.41a88.19 88.19 0 0 0-12.2 27h293.69c0.32-2.37 0.53-4.77 0.72-7.15q0.79-9.91 1.33-19.85z" fill="#7cc2e5"/>
     <path class="cls-10" d="m100.02-197.41a99 99 0 0 0-3.12 18.5c-0.2 2.84-0.39 5.68-0.55 8.52h282.39a37.2 37.2 0 0 0 12.42-16.52 43.58 43.58 0 0 0 2.55-10.46z" fill="#fcedb1"/>
     <path class="cls-4" d="m96.354-170.41c-0.53 9-0.84 18-0.6 27h113c11.45-10.34 26.78-14.44 44-15.71 20.07-1.47 40.21-0.67 60.3-1.13 21.11-0.48 48.46 2.7 65.73-10.16z" fill="#7cc2e5"/>
     <path class="cls-10" d="m95.754-143.41a169.7 169.7 0 0 0 2.72 27h94a78.17 78.17 0 0 1 2.69-7.46 54.45 54.45 0 0 1 13.57-19.54z" fill="#fcedb1"/>
     <path class="cls-4" d="m98.504-116.41c0.1 0.51 0.18 1 0.28 1.53a114.12 114.12 0 0 0 8.23 25.47h81.49a102.54 102.54 0 0 1 4-27z" fill="#7cc2e5"/>
    </g>
    <polygon class="cls-11" transform="translate(94.954 -383.65)" points="296.85 123.74 275.2 139.74 253.55 155.74 231.9 139.74 210.25 123.74 253.55 123.74" fill="#b2ddf7"/>
    <path class="cls-10" d="m106.98-89.406a105.65 105.65 0 0 0 18.13 27h65.08c-0.52-5.66-1.11-12.55-1.46-17-0.19-2.39-0.31-4.1-0.32-4.58 0-1.79 0-3.59 0.05-5.39z" fill="#fcedb1" stroke="#070707" stroke-miterlimit="10"/>
    <g fill="#7cc2e5" stroke="#070707" stroke-miterlimit="10">
     <path class="cls-4" d="m349-218.91a0.59 0.59 0 0 1-1 0.4l-47-32.91v0-12.19a0.33 0.33 0 0 1 0.56-0.22l47.33 32.31a0.38 0.38 0 0 1 0.11 0.26z"/>
     <path class="cls-4" d="m350.22-218.04 45.28-31.6a2.77 2.77 0 0 0 1.49-2.45v-11.69a0.39 0.39 0 0 0-0.56-0.34l-47.29 32.63a0.28 0.28 0 0 0-0.15 0.25v12.45a0.84 0.84 0 0 0 1.23 0.75z"/>
     <path class="cls-4" d="m125-62.406c0 0.52 7 8 15 10h51c0-1-1-7-1-10z"/>
    </g>
   </g>
   <g font-family="sans-serif" font-size="38.667px">
    <text x="327.81506" y="138.91885" fill="#888888" style="line-height:1.25" xml:space="preserve"><tspan x="327.81506" y="138.91885" fill="#888888" font-family="'Maven Pro'" font-size="38.667px" font-weight="bold">Pyjamas</tspan></text>
    <text x="328.42865" y="53.275032" fill="#4493c0" style="line-height:1.25" xml:space="preserve"><tspan x="328.42865" y="53.275032" fill="#4493c0" font-family="'Maven Pro'" font-size="38.667px" font-weight="bold">Pyjamas</tspan></text>
    <text x="327.00909" y="224.33292" fill="#e7e8e8" style="line-height:1.25" xml:space="preserve"><tspan x="327.00909" y="224.33292" fill="#e7e8e8" font-family="'Maven Pro'" font-size="38.667px" font-weight="bold">Pyjamas</tspan></text>
   </g>
  </g>
 </g>
</svg>
